<svg width="65" height="30" viewBox="0 0 65 30" fill="none" xmlns="http://www.w3.org/2000/svg">
<path d="M18.8867 29H0.117188V26.207L7.63672 18.6484C9.92839 16.3307 11.4388 14.6771 12.168 13.6875C12.8971 12.6979 13.444 11.7344 13.8086 10.7969C14.1732 9.85938 14.3555 8.85026 14.3555 7.76953C14.3555 6.24609 13.8932 5.04167 12.9688 4.15625C12.0443 3.25781 10.7617 2.80859 9.12109 2.80859C7.9362 2.80859 6.8099 3.00391 5.74219 3.39453C4.6875 3.78516 3.50911 4.49479 2.20703 5.52344L0.488281 3.31641C3.11849 1.12891 5.98307 0.0351562 9.08203 0.0351562C11.7643 0.0351562 13.8672 0.72526 15.3906 2.10547C16.9141 3.47266 17.6758 5.3151 17.6758 7.63281C17.6758 9.44271 17.168 11.2331 16.1523 13.0039C15.1367 14.7747 13.2357 17.0143 10.4492 19.7227L4.19922 25.8359V25.9922H18.8867V29ZM41.9336 14.6836C41.9336 19.6185 41.1523 23.3034 39.5898 25.7383C38.0404 28.1732 35.6641 29.3906 32.4609 29.3906C29.388 29.3906 27.0508 28.1471 25.4492 25.6602C23.8477 23.1602 23.0469 19.5013 23.0469 14.6836C23.0469 9.70964 23.8216 6.01823 25.3711 3.60938C26.9206 1.20052 29.2839 -0.00390625 32.4609 -0.00390625C35.5599 -0.00390625 37.9102 1.2526 39.5117 3.76562C41.1263 6.27865 41.9336 9.91797 41.9336 14.6836ZM26.3281 14.6836C26.3281 18.8372 26.8164 21.8646 27.793 23.7656C28.7695 25.6536 30.3255 26.5977 32.4609 26.5977C34.6224 26.5977 36.1849 25.6406 37.1484 23.7266C38.125 21.7995 38.6133 18.7852 38.6133 14.6836C38.6133 10.582 38.125 7.58073 37.1484 5.67969C36.1849 3.76562 34.6224 2.80859 32.4609 2.80859C30.3255 2.80859 28.7695 3.7526 27.793 5.64062C26.8164 7.51562 26.3281 10.5299 26.3281 14.6836ZM46.2305 16.793C46.2305 11.181 47.3177 6.98828 49.4922 4.21484C51.6797 1.42839 54.9089 0.0351562 59.1797 0.0351562C60.651 0.0351562 61.8099 0.158854 62.6562 0.40625V3.19922C61.6536 2.8737 60.5078 2.71094 59.2188 2.71094C56.1589 2.71094 53.8216 3.66797 52.207 5.58203C50.5924 7.48307 49.707 10.4779 49.5508 14.5664H49.7852C51.2174 12.3268 53.4831 11.207 56.582 11.207C59.1471 11.207 61.1654 11.9818 62.6367 13.5312C64.1211 15.0807 64.8633 17.1836 64.8633 19.8398C64.8633 22.8086 64.0495 25.1458 62.4219 26.8516C60.8073 28.5443 58.6198 29.3906 55.8594 29.3906C52.9036 29.3906 50.5599 28.2839 48.8281 26.0703C47.0964 23.8438 46.2305 20.7513 46.2305 16.793ZM55.8203 26.6367C57.6693 26.6367 59.1016 26.0573 60.1172 24.8984C61.1458 23.7266 61.6602 22.0404 61.6602 19.8398C61.6602 17.9518 61.1849 16.4674 60.2344 15.3867C59.2839 14.306 57.8646 13.7656 55.9766 13.7656C54.8047 13.7656 53.7305 14.0065 52.7539 14.4883C51.7773 14.9701 50.9961 15.6341 50.4102 16.4805C49.8372 17.3268 49.5508 18.2057 49.5508 19.1172C49.5508 20.4583 49.8112 21.7083 50.332 22.8672C50.8529 24.026 51.5885 24.944 52.5391 25.6211C53.5026 26.2982 54.5964 26.6367 55.8203 26.6367Z" fill="#BC9060"/>
</svg>
