<svg width="42" height="30" viewBox="0 0 42 30" fill="none" xmlns="http://www.w3.org/2000/svg">
<path d="M18.832 12.6328C18.832 23.8047 14.5091 29.3906 5.86328 29.3906C4.35286 29.3906 3.15495 29.2604 2.26953 29V26.207C3.3112 26.5456 4.49609 26.7148 5.82422 26.7148C8.94922 26.7148 11.306 25.7513 12.8945 23.8242C14.4961 21.8841 15.3685 18.9154 15.5117 14.918H15.2773C14.5612 15.9987 13.6107 16.8255 12.4258 17.3984C11.2409 17.9583 9.90625 18.2383 8.42188 18.2383C5.89583 18.2383 3.89062 17.4831 2.40625 15.9727C0.921875 14.4622 0.179688 12.3529 0.179688 9.64453C0.179688 6.67578 1.00651 4.33203 2.66016 2.61328C4.32682 0.894531 6.51432 0.0351562 9.22266 0.0351562C11.1628 0.0351562 12.8555 0.536458 14.3008 1.53906C15.7591 2.52865 16.8789 3.98047 17.6602 5.89453C18.4414 7.79557 18.832 10.0417 18.832 12.6328ZM9.22266 2.80859C7.36068 2.80859 5.92188 3.40755 4.90625 4.60547C3.89062 5.80339 3.38281 7.47005 3.38281 9.60547C3.38281 11.4805 3.85156 12.9583 4.78906 14.0391C5.72656 15.1068 7.15234 15.6406 9.06641 15.6406C10.2513 15.6406 11.3385 15.3997 12.3281 14.918C13.3307 14.4362 14.1185 13.7786 14.6914 12.9453C15.2643 12.112 15.5508 11.2396 15.5508 10.3281C15.5508 8.96094 15.2839 7.69792 14.75 6.53906C14.2161 5.38021 13.4674 4.46875 12.5039 3.80469C11.5534 3.14062 10.4596 2.80859 9.22266 2.80859ZM40.6484 7.16406C40.6484 8.98698 40.1341 10.4779 39.1055 11.6367C38.0898 12.7956 36.6445 13.5703 34.7695 13.9609V14.1172C37.0612 14.4036 38.7604 15.1328 39.8672 16.3047C40.974 17.4766 41.5273 19.013 41.5273 20.9141C41.5273 23.6354 40.5833 25.7318 38.6953 27.2031C36.8073 28.6615 34.125 29.3906 30.6484 29.3906C29.138 29.3906 27.7513 29.2734 26.4883 29.0391C25.2383 28.8177 24.0208 28.4206 22.8359 27.8477V24.7617C24.0729 25.3737 25.388 25.8424 26.7812 26.168C28.1875 26.4805 29.5156 26.6367 30.7656 26.6367C35.7005 26.6367 38.168 24.7031 38.168 20.8359C38.168 17.3724 35.4466 15.6406 30.0039 15.6406H27.1914V12.8477H30.043C32.2695 12.8477 34.0339 12.3594 35.3359 11.3828C36.638 10.3932 37.2891 9.02604 37.2891 7.28125C37.2891 5.88802 36.8073 4.79427 35.8438 4C34.8932 3.20573 33.5977 2.80859 31.957 2.80859C30.707 2.80859 29.5286 2.97786 28.4219 3.31641C27.3151 3.65495 26.0521 4.27995 24.6328 5.19141L22.9922 3.00391C24.1641 2.07943 25.5117 1.35677 27.0352 0.835938C28.5716 0.302083 30.1862 0.0351562 31.8789 0.0351562C34.6523 0.0351562 36.8073 0.673177 38.3438 1.94922C39.8802 3.21224 40.6484 4.95052 40.6484 7.16406Z" fill="#BC9060"/>
</svg>
